PathFileType	4	(X/Y/Z)	intermediate\S1_nor_fast_left\tmpqolbj2xf.trc
DataRate	CameraRate	NumFrames	NumMarkers	Units	OrigDataRate	OrigDataStartFrame	OrigNumFrames
250.0	250.0	17	18	mm	250.0	2783	3710
Frame#	Time	c7			r_should			l_should			clavicle			r_upa			r_elb_l			r_elb_m			r_low			r_wri_l			r_wri_m			r_met			l_upa			l_elb_l			l_elb_m			l_low			l_wri_l			l_wri_m			l_met			
		X	Y	Z	X	Y	Z	X	Y	Z	X	Y	Z	X	Y	Z	X	Y	Z	X	Y	Z	X	Y	Z	X	Y	Z	X	Y	Z	X	Y	Z	X	Y	Z	X	Y	Z	X	Y	Z	X	Y	Z	X	Y	Z	X	Y	Z	X	Y	Z	
2783	11.128000	943.374451	1416.101196	144.128860	1027.450806	1351.369507	325.431122	1007.210999	1354.828003	-48.924385	1090.335571	1307.707520	132.807434	1041.724121	1137.085083	361.409485	1071.271973	1035.540649	359.206299	992.600342	1020.746460	295.146240	1028.254150	906.322815	375.576355	1102.453491	815.175415	333.632812	1038.528809	802.740295	366.599091	1132.901855	727.946777	343.385651	1053.267212	1140.503052	-75.204781	1063.587646	1094.189209	-81.604057	1060.135986	1042.789307	17.511770	1169.813721	1124.491211	-29.443867	1175.054932	1232.262207	-34.018806	1221.897217	1201.792480	12.684325	1212.160400	1299.168335	-35.806900	
2784	11.132000	943.066467	1416.092407	144.206406	1027.229248	1351.368896	325.485565	1006.818176	1354.858521	-48.884735	1090.024048	1307.720825	132.825531	1041.553345	1137.068848	361.426056	1071.117676	1035.518555	359.169586	992.462463	1020.717651	295.142120	1028.167969	906.315491	375.557190	1102.404907	815.204041	333.578888	1038.465942	802.734985	366.550201	1132.896973	727.985168	343.306213	1052.505493	1140.353394	-75.057701	1062.811401	1093.976318	-81.608780	1055.644287	1042.693359	15.192707	1169.556763	1123.360718	-29.636992	1175.872925	1231.089111	-34.183735	1222.557617	1199.909790	12.282471	1210.071289	1297.042114	-36.024761	
2785	11.136000	942.761353	1416.091919	144.312820	1027.015747	1351.359985	325.536835	1006.443848	1354.863159	-48.871212	1089.725586	1307.726807	132.838486	1041.389038	1137.052002	361.444946	1070.915283	1035.529907	359.160736	992.292908	1020.711914	295.167999	1028.083740	906.303101	375.535126	1102.355835	815.226685	333.518402	1038.400024	802.730469	366.505859	1132.885132	728.028198	343.233459	1051.717773	1140.192993	-74.909363	1062.022217	1093.750366	-81.613350	1053.846558	1042.610840	14.512813	1169.282471	1122.185303	-29.822802	1176.707886	1229.854370	-34.334988	1222.974121	1198.196167	12.122781	1216.674927	1295.960938	-36.374393	
2786	11.140000	942.450439	1416.102173	144.423660	1026.799805	1351.351074	325.596680	1006.115906	1354.818848	-48.898510	1089.422241	1307.726440	132.855392	1041.176880	1136.958496	361.437378	1070.763428	1035.531860	359.145416	992.136230	1020.712585	295.203888	1028.002686	906.288025	375.516510	1102.303955	815.244263	333.460327	1038.328003	802.715088	366.460815	1132.869263	728.057251	343.153168	1050.919189	1140.004150	-74.750366	1061.223633	1093.498535	-81.598938	1052.579590	1042.491455	14.163516	1169.002319	1120.959351	-29.999533	1177.554810	1228.586914	-34.519203	1223.349854	1196.510498	12.034745	1219.576294	1294.326416	-36.691555	
2787	11.144000	942.134155	1416.098999	144.529037	1026.571533	1351.341675	325.661743	1005.762451	1354.802612	-48.876694	1089.097412	1307.733887	132.876572	1040.916504	1136.786011	361.392822	1070.617920	1035.525757	359.117615	992.018127	1020.678772	295.206787	1027.927612	906.274170	375.500824	1102.250488	815.259583	333.404236	1038.259155	802.698181	366.414642	1132.851318	728.076050	343.076904	1050.124023	1139.796753	-74.599785	1060.434814	1093.233032	-81.555283	1051.349609	1042.313354	13.916804	1168.728882	1119.721680	-30.197268	1178.418457	1227.269897	-34.695908	1224.024170	1194.571167	11.689540	1221.577026	1292.535400	-36.990284	
2788	11.148000	941.818604	1416.093140	144.643341	1026.340698	1351.330078	325.728760	1005.385071	1354.813599	-48.829872	1088.769653	1307.738403	132.905319	1040.738647	1136.731812	361.387604	1070.488159	1035.522705	359.161499	991.886230	1020.660889	295.207306	1027.847778	906.255005	375.487457	1102.197021	815.271118	333.336334	1038.194946	802.691406	366.380463	1132.834106	728.094421	342.993866	1049.513672	1139.912842	-74.809525	1059.651978	1092.974365	-81.531898	1050.301025	1042.125244	13.742704	1168.446045	1118.442993	-30.385614	1179.300049	1225.916504	-34.865753	1224.624268	1192.638428	11.451551	1223.340210	1290.646606	-37.284115	
2789	11.152000	941.500366	1416.082886	144.750061	1026.108276	1351.314087	325.799347	1004.992249	1354.840820	-48.773048	1088.448608	1307.734253	132.921341	1040.580078	1136.705688	361.387360	1070.362793	1035.524902	359.221405	991.722107	1020.661926	295.230042	1027.767944	906.232971	375.469147	1102.137329	815.285339	333.270569	1038.133179	802.675537	366.336823	1132.813965	728.118164	342.911407	1049.190674	1140.362183	-75.469238	1058.849609	1092.708862	-81.527397	1049.265503	1041.932739	13.573561	1168.148560	1117.145996	-30.588104	1180.190552	1224.525391	-35.056206	1225.193359	1190.577026	11.223285	1225.060669	1288.673340	-37.565495	
2790	11.156000	941.190979	1416.084229	144.871048	1025.871826	1351.300415	325.867645	1004.606934	1354.870483	-48.708134	1088.141357	1307.734253	132.935303	1040.436890	1136.689087	361.398804	1070.226929	1035.499390	359.096710	991.559814	1020.651550	295.261810	1027.695923	906.211975	375.455200	1102.073853	815.299744	333.201263	1038.073242	802.660645	366.298676	1132.780762	728.133057	342.829193	1048.698120	1140.093750	-75.582512	1057.999756	1092.421753	-81.529129	1048.258057	1041.729248	13.375868	1167.859497	1115.825684	-30.795698	1181.096069	1223.077271	-35.263103	1225.699585	1188.581543	10.983109	1226.781738	1286.633057	-37.877880	
2791	11.160000	940.890076	1416.091797	144.983856	1025.642334	1351.282715	325.931213	1004.225464	1354.905762	-48.636826	1087.709473	1307.838867	132.964661	1040.342529	1136.740234	361.435089	1070.102173	1035.489014	359.054565	991.398010	1020.641785	295.291840	1027.620239	906.192871	375.439453	1102.009277	815.312012	333.127228	1038.012207	802.665710	366.269897	1132.739746	728.146545	342.732239	1048.145508	1139.630737	-75.551903	1057.145386	1092.130859	-81.513565	1047.213257	1041.543945	13.193817	1167.550049	1114.475708	-30.995428	1182.011963	1221.586304	-35.481087	1226.180176	1186.567627	10.756864	1229.795898	1284.988403	-39.237656	
2792	11.164000	940.599915	1416.095703	145.083496	1025.415405	1351.262817	325.997131	1003.834473	1354.939209	-48.560940	1087.175781	1308.006348	133.017776	1040.255493	1136.806641	361.480438	1069.973999	1035.483154	359.088257	991.237610	1020.625977	295.308807	1027.539062	906.162842	375.418518	1101.936768	815.320129	333.056274	1037.952393	802.675476	366.238464	1132.690308	728.158203	342.630432	1047.572388	1139.122070	-75.492386	1056.306152	1091.847412	-81.491386	1046.275879	1041.426636	13.133628	1167.218750	1113.087891	-31.196476	1182.932617	1220.060547	-35.688839	1226.677979	1184.525635	10.528890	1233.138672	1283.403198	-40.881336	
2793	11.168000	940.307129	1416.097900	145.175980	1025.191772	1351.244141	326.069763	1003.438477	1354.969727	-48.479477	1086.905029	1307.907715	133.006622	1040.027954	1136.666382	361.459320	1069.852539	1035.480225	359.140991	991.093689	1020.595764	295.310944	1027.456421	906.137817	375.399139	1101.864258	815.326355	332.979584	1037.894775	802.677368	366.197418	1132.639893	728.166382	342.524597	1046.546265	1138.635742	-75.043663	1055.459717	1091.551392	-81.468338	1045.234619	1041.312744	13.030246	1166.871826	1111.681885	-31.412636	1183.855713	1218.487549	-35.912132	1227.191162	1182.526733	10.277238	1232.799438	1280.431641	-39.541817	
2794	11.172000	940.017090	1416.105957	145.295364	1024.978394	1351.223389	326.141449	1003.051025	1354.999756	-48.397629	1086.660156	1307.831421	132.994522	1039.852539	1136.606445	361.452942	1069.723389	1035.447632	359.077667	990.949036	1020.556946	295.323029	1027.369995	906.114197	375.383026	1101.785889	815.332031	332.905029	1038.114746	802.771545	366.003815	1132.589233	728.171631	342.423462	1044.897095	1138.259033	-74.093262	1054.582764	1091.239502	-81.414375	1044.019165	1041.135864	12.780142	1166.534180	1110.245483	-31.642530	1184.786499	1216.860474	-36.149620	1227.698486	1180.537476	10.023377	1234.041504	1277.916870	-39.508766	
2795	11.176000	939.720764	1416.108154	145.404495	1024.773560	1351.203003	326.217163	1002.669434	1355.022583	-48.308327	1086.392578	1307.801025	133.015396	1039.709229	1136.566284	361.468658	1069.595093	1035.440918	359.118530	990.797729	1020.524597	295.329254	1027.283203	906.090088	375.364288	1101.707275	815.335754	332.829956	1038.670654	802.984131	365.627380	1132.535889	728.174744	342.318115	1043.849365	1137.998169	-73.803741	1053.691162	1090.930786	-81.375282	1042.869141	1040.963013	12.537368	1166.192017	1108.782959	-31.868134	1185.725708	1215.192261	-36.380474	1228.173096	1178.381836	9.773449	1235.678467	1275.495117	-39.803303	
2796	11.180000	939.420959	1416.101929	145.510986	1024.577393	1351.180176	326.289825	1002.299194	1355.045166	-48.222004	1086.101807	1307.785767	133.047104	1039.567017	1136.532471	361.491699	1069.458496	1035.407715	358.975220	990.645508	1020.507080	295.339600	1027.191162	906.062378	375.341187	1101.621826	815.331421	332.757050	1038.757812	803.010315	365.488312	1132.480591	728.172791	342.213318	1042.947266	1137.767090	-73.684532	1052.791138	1090.619263	-81.342728	1041.781128	1040.809814	12.378990	1165.835571	1107.284546	-32.079395	1186.677490	1213.472900	-36.626099	1228.604980	1176.143433	9.511512	1237.440063	1273.079834	-40.172806	
2797	11.184000	939.122070	1416.098511	145.617416	1024.379272	1351.156128	326.367645	1001.937012	1355.069702	-48.149128	1085.794434	1307.768677	133.088135	1039.417847	1136.495972	361.512939	1069.336304	1035.400269	359.005005	990.481995	1020.494446	295.362274	1027.091797	906.025574	375.314880	1101.533936	815.318237	332.683716	1038.725342	802.991272	365.409851	1132.419189	728.167908	342.102081	1042.100464	1137.553467	-73.624420	1051.891479	1090.309814	-81.319733	1040.664307	1040.652222	12.258454	1165.469604	1105.753174	-32.293041	1187.626465	1211.700439	-36.865925	1229.051147	1173.868530	9.241620	1239.243164	1270.593140	-40.545689	
2798	11.188000	938.836243	1416.092896	145.727737	1024.186646	1351.130737	326.442413	1001.571899	1355.093506	-48.079185	1085.491821	1307.758545	133.126022	1039.272461	1136.453735	361.537323	1069.211548	1035.399292	359.147675	990.316895	1020.467041	295.388153	1026.983887	905.981934	375.287354	1101.438599	815.306641	332.608063	1038.660400	802.957642	365.348694	1132.347168	728.160950	341.989410	1041.258057	1137.359375	-73.608139	1051.000122	1089.968872	-81.264793	1039.634277	1040.498291	12.193699	1165.093750	1104.201294	-32.524422	1188.585938	1209.874390	-37.117496	1229.530151	1171.561035	8.958361	1241.061890	1268.013916	-40.950054	
2799	11.192000	938.551331	1416.081665	145.846481	1023.993958	1351.104126	326.512512	1001.199219	1355.121826	-48.002491	1085.202515	1307.757812	133.165833	1039.129639	1136.415771	361.559387	1069.073608	1035.381714	359.183350	990.175598	1020.425110	295.388123	1026.871216	905.938599	375.265015	1101.338501	815.295410	332.533661	1038.582275	802.921082	365.298584	1132.265747	728.154114	341.878326	1040.427124	1137.164673	-73.610130	1050.134644	1089.611572	-81.188904	1038.651611	1040.324219	12.115616	1164.702881	1102.626953	-32.759109	1189.545410	1208.005249	-37.375248	1230.001709	1169.184204	8.702403	1242.885010	1265.346924	-41.376072	
